<svg width="20" height="20" viewBox="0 0 20 20" fill="none" xmlns="http://www.w3.org/2000/svg">
<path d="M14.1654 11.6693V16.6693M11.6654 14.1693H16.6654M4.9987 8.33594H6.66536C7.58584 8.33594 8.33203 7.58975 8.33203 6.66927V5.0026C8.33203 4.08213 7.58584 3.33594 6.66536 3.33594H4.9987C4.07822 3.33594 3.33203 4.08213 3.33203 5.0026V6.66927C3.33203 7.58975 4.07822 8.33594 4.9987 8.33594ZM13.332 8.33594H14.9987C15.9192 8.33594 16.6654 7.58975 16.6654 6.66927V5.0026C16.6654 4.08213 15.9192 3.33594 14.9987 3.33594H13.332C12.4116 3.33594 11.6654 4.08213 11.6654 5.0026V6.66927C11.6654 7.58975 12.4116 8.33594 13.332 8.33594ZM4.9987 16.6693H6.66536C7.58584 16.6693 8.33203 15.9231 8.33203 15.0026V13.3359C8.33203 12.4155 7.58584 11.6693 6.66536 11.6693H4.9987C4.07822 11.6693 3.33203 12.4155 3.33203 13.3359V15.0026C3.33203 15.9231 4.07822 16.6693 4.9987 16.6693Z" stroke="#A3A7AC" stroke-width="1.5" stroke-linecap="round" stroke-linejoin="round"/>
</svg>
