<svg width="20" height="20" viewBox="0 0 20 20" fill="none" xmlns="http://www.w3.org/2000/svg">
<path d="M16.6654 10.8359V5.0026C16.6654 4.08213 15.9192 3.33594 14.9987 3.33594H4.9987C4.07822 3.33594 3.33203 4.08213 3.33203 5.0026V10.8359M16.6654 10.8359V15.0026C16.6654 15.9231 15.9192 16.6693 14.9987 16.6693H4.9987C4.07822 16.6693 3.33203 15.9231 3.33203 15.0026V10.8359M16.6654 10.8359H14.5105C14.2895 10.8359 14.0776 10.9237 13.9213 11.08L11.9094 13.0919C11.7532 13.2481 11.5412 13.3359 11.3202 13.3359H8.67721C8.4562 13.3359 8.24423 13.2481 8.08795 13.0919L6.07611 11.08C5.91983 10.9237 5.70787 10.8359 5.48685 10.8359H3.33203" stroke="white" stroke-width="1.5" stroke-linecap="round" stroke-linejoin="round"/>
</svg>
