<svg width="19" height="21" viewBox="0 0 19 21" fill="none" xmlns="http://www.w3.org/2000/svg">
<path d="M14.9991 11.01C15.1293 11.0284 15.2546 11.0723 15.3678 11.1392C15.481 11.206 15.58 11.2946 15.6589 11.3997C15.7379 11.5049 15.7953 11.6245 15.8279 11.7519C15.8606 11.8793 15.8678 12.0118 15.8491 12.142C15.5985 13.876 14.7858 15.4799 13.5358 16.7075C12.2857 17.9352 10.6674 18.7187 8.92914 18.938V20C8.92914 20.2652 8.82378 20.5196 8.63624 20.7071C8.44871 20.8946 8.19435 21 7.92914 21C7.66392 21 7.40957 20.8946 7.22203 20.7071C7.03449 20.5196 6.92914 20.2652 6.92914 20V18.938C5.19111 18.7184 3.57311 17.9347 2.3233 16.7071C1.0735 15.4795 0.260898 13.8758 0.0101361 12.142C-0.0275247 11.8794 0.0406604 11.6127 0.199691 11.4004C0.358722 11.1881 0.595572 11.0477 0.858136 11.01C1.1207 10.9723 1.38747 11.0405 1.59976 11.1996C1.81205 11.3586 1.95248 11.5954 1.99014 11.858C2.19695 13.2856 2.91108 14.5909 4.00175 15.535C5.09242 16.479 6.48664 16.9986 7.92914 16.9986C9.37163 16.9986 10.7659 16.479 11.8565 15.535C12.9472 14.5909 13.6613 13.2856 13.8681 11.858C13.8868 11.728 13.9308 11.6029 13.9978 11.4899C14.0648 11.3769 14.1534 11.2783 14.2585 11.1995C14.3636 11.1208 14.4832 11.0635 14.6105 11.031C14.7377 10.9985 14.8691 10.9913 14.9991 11.01ZM7.92914 1C8.74814 1 9.52114 1.197 10.2031 1.546C9.75048 1.86439 9.39471 2.30179 9.17519 2.80981C8.95567 3.31784 8.88096 3.87668 8.95931 4.42452C9.03766 4.97237 9.26603 5.48787 9.61915 5.91399C9.97227 6.34011 10.4364 6.66025 10.9601 6.839L11.3381 6.969C11.4826 7.01827 11.6138 7.09994 11.7218 7.20776C11.8298 7.31557 11.9116 7.44666 11.9611 7.591L12.0901 7.969C12.2601 8.469 12.5541 8.901 12.9291 9.236V11C12.9291 12.3261 12.4024 13.5979 11.4647 14.5355C10.527 15.4732 9.25522 16 7.92914 16C6.60305 16 5.33128 15.4732 4.3936 14.5355C3.45592 13.5979 2.92914 12.3261 2.92914 11V6C2.92914 4.67392 3.45592 3.40215 4.3936 2.46447C5.33128 1.52678 6.60305 1 7.92914 1ZM14.9291 0C15.1162 -4.16657e-07 15.2995 0.052478 15.4583 0.151471C15.617 0.250465 15.7448 0.392002 15.8271 0.56L15.8751 0.677L16.0051 1.055C16.1423 1.45718 16.3634 1.82563 16.6537 2.13594C16.944 2.44625 17.297 2.69135 17.6891 2.855L17.8741 2.925L18.2521 3.054C18.4393 3.11786 18.6034 3.2358 18.7235 3.3929C18.8437 3.54999 18.9146 3.7392 18.9272 3.93658C18.9398 4.13396 18.8937 4.33065 18.7945 4.50178C18.6953 4.67291 18.5477 4.8108 18.3701 4.898L18.2521 4.946L17.8741 5.076C17.472 5.2132 17.1035 5.43428 16.7932 5.72459C16.4829 6.01491 16.2378 6.36783 16.0741 6.76L16.0041 6.945L15.8751 7.323C15.8112 7.51014 15.6931 7.6741 15.536 7.79416C15.3788 7.91423 15.1896 7.98499 14.9922 7.99752C14.7948 8.01004 14.5982 7.96376 14.4271 7.86452C14.2561 7.76528 14.1182 7.61755 14.0311 7.44L13.9831 7.323L13.8531 6.945C13.7159 6.54282 13.4949 6.17437 13.2045 5.86406C12.9142 5.55375 12.5613 5.30865 12.1691 5.145L11.9841 5.075L11.6061 4.946C11.4189 4.88214 11.2549 4.7642 11.1347 4.6071C11.0146 4.45001 10.9437 4.2608 10.9311 4.06342C10.9184 3.86604 10.9646 3.66935 11.0638 3.49822C11.1629 3.32709 11.3106 3.1892 11.4881 3.102L11.6061 3.054L11.9841 2.924C12.3863 2.7868 12.7548 2.56572 13.0651 2.27541C13.3754 1.98509 13.6205 1.63217 13.7841 1.24L13.8541 1.055L13.9831 0.677C14.0505 0.479587 14.1779 0.308185 14.3476 0.18679C14.5172 0.0653942 14.7205 8.32272e-05 14.9291 0Z" fill="#0046BB"/>
</svg>
